<svg id="big" xmlns="http://www.w3.org/2000/svg" width="249.885" height="45.258" viewBox="0 0 1087.875 197.031">
  <defs>
    <style>
      .cls-1 {
        fill: #7bab3f;
      }

      .cls-2 {
        fill: #3b3a3a;
        fill-rule: evenodd;
      }
    </style>
  </defs>
  <circle id="Эллипс_1" data-name="Эллипс 1" class="cls-1" cx="1065.125" cy="174.281" r="22.75"/>
  <path id="wanter_копия" data-name="wanter копия" class="cls-2" d="M483.391,177.233l-21.6,80.4-23.4-80.4h-42l-23.4,80.4-21.6-80.4h-48l48,150h42l24-80.1,24,80.1h42l48-150h-48Zm168.9,0v14.1c-9.9-11.4-24.6-18.3-44.7-18.3-39.3,0-71.7,34.5-71.7,79.2s32.4,79.2,71.7,79.2c20.1,0,34.8-6.9,44.7-18.3v14.1h45v-150h-45Zm-35.7,111.6c-20.7,0-35.7-14.1-35.7-36.6s15-36.6,35.7-36.6,35.7,14.1,35.7,36.6S637.291,288.834,616.59,288.834Zm201.6-115.8c-19.8,0-34.8,7.2-42.9,18.3v-14.1h-45v150h45v-81.9c0-21.3,11.4-30.9,27.9-30.9,14.4,0,26.1,8.7,26.1,27.3v85.5h45v-92.1C874.287,194.633,848.487,173.033,818.186,173.033Zm174.9,47.4v-43.2h-30.9v-42l-45,13.5v28.5h-24v43.2h24v53.1c0,42,17.1,59.7,75.9,53.7v-40.8c-19.8,1.2-30.9,0-30.9-12.9v-53.1h30.9Zm62.7,49.8h106.5a87.2,87.2,0,0,0,1.8-18c0-45.3-32.4-79.2-76.2-79.2-47.4,0-79.8,34.5-79.8,79.2s31.8,79.2,83.1,79.2c28.5,0,50.7-10.5,65.4-30.9l-36-20.7c-6,6.6-16.5,11.4-28.8,11.4C1075.28,291.234,1061.48,285.834,1055.78,270.234Zm-0.9-33.6c4.2-15.3,15.6-23.7,32.7-23.7,13.5,0,27,6.3,31.8,23.7h-64.5Zm179.7-32.7v-26.7h-45v150h45v-67.8c0-29.7,26.4-37.2,45-34.2v-51C1260.68,174.233,1240.58,183.833,1234.58,203.933Z" transform="translate(-303.375 -135.219)"/>
</svg>
