<?xml version="1.0" encoding="iso-8859-1"?>
<!-- Generator: Adobe Illustrator 19.0.0, SVG Export Plug-In . SVG Version: 6.00 Build 0)  -->
<svg xmlns="http://www.w3.org/2000/svg" xmlns:xlink="http://www.w3.org/1999/xlink" version="1.1" id="Capa_1" x="0px" y="0px" viewBox="0 0 480 480" style="enable-background:new 0 0 480 480;" xml:space="preserve" width="512px" height="512px">
<g>
	<g>
		<path d="M312,332.256V272c0-13.255-10.745-24-24-24c-2.732,0.026-5.438,0.524-8,1.472V248c0-13.255-10.745-24-24-24    c-2.732,0.026-5.438,0.524-8,1.472V216c0-13.255-10.745-24-24-24s-24,10.745-24,24v1.472c-2.562-0.948-5.268-1.445-8-1.472    c-13.255,0-24,10.745-24,24v56.72c-26.381,4.704-43.953,29.903-39.25,56.284c2.507,14.058,11.079,26.299,23.434,33.46l23.2,13.24    c5.33,3.066,8.616,8.747,8.616,14.896v9.4h-8c-4.418,0-8,3.582-8,8v40c0,4.418,3.582,8,8,8h128c4.418,0,8-3.582,8-8v-40    c0-4.418-3.582-8-8-8h-8v-22.144C306.497,380.154,311.966,356.364,312,332.256z M296,464H184v-24h112V464z M280.8,396.424    c-0.54,1.114-0.814,2.338-0.8,3.576v24h-80v-9.4c-0.009-11.901-6.384-22.887-16.712-28.8l-23.2-13.248    C149.951,366.65,143.797,355.728,144,344c0.055-14.547,9.915-27.227,24-30.864V336h16v-96c0-4.418,3.582-8,8-8s8,3.582,8,8v56h16    v-80c0-4.418,3.582-8,8-8s8,3.582,8,8v88h16v-56c0-4.418,3.582-8,8-8s8,3.582,8,8v64h16v-40c0-4.418,3.582-8,8-8s8,3.582,8,8    v60.224C295.961,354.511,290.758,376.486,280.8,396.424z" fill="#FFFFFF"/>
	</g>
</g>
<g>
	<g>
		<path d="M456,64H296c-13.255,0-24,10.745-24,24v96c0,13.255,10.745,24,24,24h16v24c-0.001,4.418,3.581,8.001,7.999,8.001    c1.581,0,3.126-0.468,4.441-1.345L370.4,208H456c13.255,0,24-10.745,24-24V88C480,74.745,469.255,64,456,64z M464,184    c0,4.418-3.582,8-8,8h-88c-1.58,0.003-3.124,0.47-4.44,1.344L328,217.056V200c0-4.418-3.582-8-8-8h-24c-4.418,0-8-3.582-8-8V88    c0-4.418,3.582-8,8-8h160c4.418,0,8,3.582,8,8V184z" fill="#FFFFFF"/>
	</g>
</g>
<g>
	<g>
		<path d="M184,32H24C10.745,32,0,42.745,0,56v96c0,13.255,10.745,24,24,24h85.6l45.984,30.656    c3.684,2.439,8.648,1.429,11.087-2.255c0.864-1.305,1.326-2.836,1.329-4.401v-24h16c13.255,0,24-10.745,24-24V56    C208,42.745,197.255,32,184,32z M192,152c0,4.418-3.582,8-8,8h-24c-4.418,0-8,3.582-8,8v17.056l-35.56-23.712    c-1.316-0.874-2.86-1.341-4.44-1.344H24c-4.418,0-8-3.582-8-8V56c0-4.418,3.582-8,8-8h160c4.418,0,8,3.582,8,8V152z" fill="#FFFFFF"/>
	</g>
</g>
<g>
	<g>
		<rect x="56" y="64" width="16" height="16" fill="#FFFFFF"/>
	</g>
</g>
<g>
	<g>
		<rect x="88" y="64" width="80" height="16" fill="#FFFFFF"/>
	</g>
</g>
<g>
	<g>
		<rect x="40" y="96" width="128" height="16" fill="#FFFFFF"/>
	</g>
</g>
<g>
	<g>
		<rect x="40" y="128" width="96" height="16" fill="#FFFFFF"/>
	</g>
</g>
<g>
	<g>
		<rect x="328" y="96" width="16" height="16" fill="#FFFFFF"/>
	</g>
</g>
<g>
	<g>
		<rect x="360" y="96" width="80" height="16" fill="#FFFFFF"/>
	</g>
</g>
<g>
	<g>
		<rect x="312" y="128" width="128" height="16" fill="#FFFFFF"/>
	</g>
</g>
<g>
	<g>
		<rect x="312" y="160" width="96" height="16" fill="#FFFFFF"/>
	</g>
</g>
<g>
	<g>
		<path d="M200,0h-80v16h80c13.255,0,24,10.745,24,24v24h16V40C239.974,17.92,222.08,0.026,200,0z" fill="#FFFFFF"/>
	</g>
</g>
<g>
	<g>
		<rect x="88" width="16" height="16" fill="#FFFFFF"/>
	</g>
</g>
<g>
	<g>
		<rect x="384" y="224" width="72" height="16" fill="#FFFFFF"/>
	</g>
</g>
<g>
	<g>
		<rect x="328" y="296" width="16" height="72" fill="#FFFFFF"/>
	</g>
</g>
<g>
	<g>
		<rect x="328" y="384" width="16" height="16" fill="#FFFFFF"/>
	</g>
</g>
<g>
</g>
<g>
</g>
<g>
</g>
<g>
</g>
<g>
</g>
<g>
</g>
<g>
</g>
<g>
</g>
<g>
</g>
<g>
</g>
<g>
</g>
<g>
</g>
<g>
</g>
<g>
</g>
<g>
</g>
</svg>
