<?xml version="1.0" encoding="iso-8859-1"?>
<!-- Generator: Adobe Illustrator 19.0.0, SVG Export Plug-In . SVG Version: 6.00 Build 0)  -->
<svg xmlns="http://www.w3.org/2000/svg" xmlns:xlink="http://www.w3.org/1999/xlink" version="1.1" id="Capa_1" x="0px" y="0px" viewBox="0 0 480 480" style="enable-background:new 0 0 480 480;" xml:space="preserve" width="512px" height="512px">
<g>
	<g>
		<path d="M240,136c-26.51,0-48,21.49-48,48c0,26.51,21.49,48,48,48c26.51,0,48-21.49,48-48    C287.974,157.501,266.499,136.026,240,136z M240,216c-17.673,0-32-14.327-32-32s14.327-32,32-32c17.673,0,32,14.327,32,32    S257.673,216,240,216z" fill="#FFFFFF"/>
	</g>
</g>
<g>
	<g>
		<path d="M480,304v-16c-35.33,0.04-63.96,28.67-64,64c0.002,4.632,0.514,9.249,1.528,13.768    c-10.601,5.62-18.709,15.012-22.72,26.32c-9.952-0.603-19.838,1.972-28.232,7.352c-22.16-21.119-57.182-20.495-78.576,1.4V344h8    c4.418,0,8-3.582,8-8v-24h8c4.206,0.011,7.701-3.237,8-7.432L321.736,280H384c4.418-0.001,7.999-3.583,7.998-8.002    c0-2.121-0.843-4.154-2.342-5.654l-62.48-62.48l2.24-31.44c2.735-38.857-6.817-77.59-27.304-110.72c0-0.048,0-0.096-0.056-0.144    c-0.12-0.2-0.264-0.376-0.384-0.568c-5.183-8.337-11.02-16.25-17.456-23.664c-0.496-0.576-1.024-1.128-1.528-1.696    c-2.581-2.896-5.248-5.712-8-8.448c-0.8-0.8-1.656-1.656-2.512-2.472c-3.336-3.2-6.752-6.272-10.344-9.216L245.064,1.808    c-2.946-2.409-7.182-2.409-10.128,0L218.2,15.496c-3.592,2.944-7.008,6.04-10.344,9.216c-0.856,0.8-1.68,1.648-2.512,2.472    c-2.773,2.736-5.44,5.552-8,8.448c-0.504,0.568-1.032,1.12-1.528,1.696c-6.436,7.414-12.273,15.327-17.456,23.664    c-0.12,0.192-0.264,0.368-0.384,0.568c0,0.048,0,0.096-0.056,0.144c-20.487,33.13-30.039,71.863-27.304,110.72l2.24,31.44    l-62.48,62.48c-3.124,3.125-3.123,8.19,0.002,11.314C91.87,279.149,93.89,279.991,96,280h62.264L160,304.568    c0.299,4.195,3.794,7.443,8,7.432h8v24c0,4.418,3.582,8,8,8h8v56.8c-21.394-21.895-56.416-22.519-78.576-1.4    c-8.394-5.379-18.28-7.953-28.232-7.352c-4.011-11.306-12.119-20.696-22.72-26.312c1.01-4.509,1.522-9.115,1.528-13.736    c-0.04-35.33-28.67-63.96-64-64v16c26.499,0.026,47.974,21.501,48,48c-0.021,2.9-0.31,5.793-0.864,8.64    c-2.357-0.409-4.744-0.623-7.136-0.64c-15.121-0.055-29.371,7.07-38.4,19.2l12.8,9.6c8.189-11.23,22.819-15.689,35.88-10.936    c10.988,3.719,19.085,13.118,21.136,24.536c0.78,4.349,4.937,7.242,9.286,6.463c0.105-0.019,0.21-0.04,0.314-0.063    c17.145-3.928,34.228,6.787,38.155,23.932c2.616,11.422-1.25,23.358-10.067,31.076l10.616,12    c19.256-16.748,21.761-45.749,5.664-65.552c16.372-14.753,41.604-13.44,56.357,2.932c6.628,7.355,10.284,16.911,10.259,26.812    c0,4.418,3.582,8,8,8s8-3.582,8-8v-96h16v24h16v-24h32v96c0,4.418,3.582,8,8,8s8-3.582,8-8    c0.05-22.091,17.999-39.959,40.091-39.909c12.163,0.028,23.653,5.588,31.221,15.109c8.576,10.763,10.995,25.188,6.4,38.16    l15.072,5.36c5.468-15.363,3.909-32.353-4.264-46.464c4.703-2.738,10.038-4.205,15.48-4.256c2.345,0.009,4.682,0.278,6.968,0.8    c4.314,0.953,8.584-1.772,9.537-6.086c0.023-0.104,0.044-0.209,0.063-0.314c3.049-17.368,19.601-28.975,36.968-25.926    c4.958,0.87,9.64,2.901,13.664,5.926l9.6-12.8c-10.188-7.895-23.231-11.131-35.928-8.912c-0.56-2.863-0.852-5.771-0.872-8.688    C432.026,325.501,453.501,304.026,480,304z M325.664,224.976L364.688,264H322.88L325.664,224.976z M115.312,264l39.024-39.024    L157.12,264H115.312z M202.096,54.8c0.36-0.464,0.728-0.92,1.096-1.376c2-2.52,4.088-4.976,6.224-7.376    c0.64-0.712,1.272-1.424,1.928-2.128c2.008-2.176,4.088-4.28,6.2-6.344c0.712-0.688,1.392-1.392,2.112-2.072    c2.8-2.632,5.672-5.192,8.648-7.624L240,18.336l11.664,9.544c2.976,2.4,5.848,4.992,8.648,7.624c0.72,0.68,1.4,1.384,2.112,2.072    c2.112,2.064,4.192,4.168,6.2,6.344c0.656,0.704,1.288,1.416,1.928,2.128c2.136,2.4,4.224,4.856,6.224,7.376    c0.368,0.456,0.736,0.912,1.096,1.376c2.4,3.08,4.72,6.24,6.912,9.504c-26.194,20.945-63.406,20.945-89.6,0    C197.376,61.04,199.696,57.904,202.096,54.8z M175.448,296l-1.144-16H256v-16h-82.832l-6.624-92.72    c-2.277-32.392,4.786-64.758,20.352-93.256c31.346,23.969,74.862,23.969,106.208,0c15.566,28.498,22.629,60.864,20.352,93.256    L304.552,296H175.448z M192,328v-16h96v16H192z" fill="#FFFFFF"/>
	</g>
</g>
<g>
	<g>
		<rect x="232" y="176" width="16" height="16" fill="#FFFFFF"/>
	</g>
</g>
<g>
	<g>
		<rect x="272" y="264" width="16" height="16" fill="#FFFFFF"/>
	</g>
</g>
<g>
	<g>
		<rect x="424" y="184" width="16" height="16" fill="#FFFFFF"/>
	</g>
</g>
<g>
	<g>
		<rect x="320" width="16" height="16" fill="#FFFFFF"/>
	</g>
</g>
<g>
	<g>
		<rect x="136" y="32" width="16" height="16" fill="#FFFFFF"/>
	</g>
</g>
<g>
	<g>
		<rect x="16" y="32" width="16" height="16" fill="#FFFFFF"/>
	</g>
</g>
<g>
	<g>
		<rect x="32" y="216" width="16" height="16" fill="#FFFFFF"/>
	</g>
</g>
<g>
	<g>
		<rect x="456" y="8" width="16" height="16" fill="#FFFFFF"/>
	</g>
</g>
<g>
	<g>
		<rect x="224" y="384" width="16" height="16" fill="#FFFFFF"/>
	</g>
</g>
<g>
	<g>
		<rect x="240" y="416" width="16" height="32" fill="#FFFFFF"/>
	</g>
</g>
<g>
	<g>
		<rect x="224" y="464" width="16" height="16" fill="#FFFFFF"/>
	</g>
</g>
<g>
	<g>
		<polygon points="88,120 88,104 72,104 72,120 56,120 56,136 72,136 72,152 88,152 88,136 104,136 104,120   " fill="#FFFFFF"/>
	</g>
</g>
<g>
	<g>
		<polygon points="408,96 408,80 392,80 392,96 376,96 376,112 392,112 392,128 408,128 408,112 424,112 424,96   " fill="#FFFFFF"/>
	</g>
</g>
<g>
</g>
<g>
</g>
<g>
</g>
<g>
</g>
<g>
</g>
<g>
</g>
<g>
</g>
<g>
</g>
<g>
</g>
<g>
</g>
<g>
</g>
<g>
</g>
<g>
</g>
<g>
</g>
<g>
</g>
</svg>
